<?xml version="1.0" standalone="no"?>
<!DOCTYPE svg PUBLIC "-//W3C//DTD SVG 20010904//EN"
 "http://www.w3.org/TR/2001/REC-SVG-20010904/DTD/svg10.dtd">
<svg version="1.0" xmlns="http://www.w3.org/2000/svg"
 width="80.000000pt" height="80.000000pt" viewBox="0 0 80.000000 80.000000"
 preserveAspectRatio="xMidYMid meet">
<metadata>
Created by potrace 1.11, written by Peter Selinger 2001-2013
</metadata>
<g transform="translate(0.000000,80.000000) scale(0.100000,-0.100000)"
fill="#000000" stroke="none">
<path d="M52 668 c-17 -17 -17 -519 0 -536 17 -17 679 -17 696 0 17 17 17 519
0 536 -17 17 -679 17 -696 0z m248 -63 c20 -24 -5 -45 -55 -45 -48 0 -84 27
-63 48 17 17 103 15 118 -3z m320 0 c20 -24 -5 -45 -55 -45 -48 0 -84 27 -63
48 17 17 103 15 118 -3z m-452 -47 c8 -8 12 -58 12 -159 0 -119 -3 -149 -15
-159 -13 -11 -18 -10 -30 6 -11 14 -14 53 -15 160 0 131 6 164 30 164 3 0 11
-5 18 -12z m180 0 c8 -8 12 -58 12 -159 0 -119 -3 -149 -15 -159 -13 -11 -18
-10 -30 6 -11 14 -14 53 -15 160 0 131 6 164 30 164 3 0 11 -5 18 -12z m140 0
c8 -8 12 -58 12 -159 0 -119 -3 -149 -15 -159 -13 -11 -18 -10 -30 6 -11 14
-14 53 -15 160 0 131 6 164 30 164 3 0 11 -5 18 -12z m180 0 c8 -8 12 -58 12
-159 0 -119 -3 -149 -15 -159 -13 -11 -18 -10 -30 6 -11 14 -14 53 -15 160 0
131 6 164 30 164 3 0 11 -5 18 -12z m-368 -333 c20 -24 -5 -45 -55 -45 -48 0
-84 27 -63 48 17 17 103 15 118 -3z m320 0 c20 -24 -5 -45 -55 -45 -48 0 -84
27 -63 48 17 17 103 15 118 -3z"/>
</g>
</svg>
